<svg width="24" height="25" viewBox="0 0 24 25" fill="none" xmlns="http://www.w3.org/2000/svg">
    <path d="M12 24.125C18.6274 24.125 24 18.7524 24 12.125C24 5.49758 18.6274 0.125 12 0.125C5.37258 0.125 0 5.49758 0 12.125C0 18.7524 5.37258 24.125 12 24.125Z" fill="#F0F0F0"/>
    <path d="M2.48056 4.81915C1.53796 6.04554 0.827189 7.45906 0.41333 8.99464H6.65605L2.48056 4.81915Z" fill="#012169"/>
    <path d="M23.5866 8.99465C23.1727 7.45912 22.4619 6.0456 21.5193 4.81921L17.3439 8.99465H23.5866Z" fill="#012169"/>
    <path d="M0.41333 15.2555C0.827236 16.791 1.538 18.2045 2.48056 19.4309L6.65591 15.2555H0.41333Z" fill="#012169"/>
    <path d="M19.3058 2.60567C18.0794 1.66306 16.6659 0.952297 15.1304 0.538391V6.78106L19.3058 2.60567Z" fill="#012169"/>
    <path d="M4.69409 21.6443C5.92048 22.5869 7.334 23.2977 8.86953 23.7116V17.469L4.69409 21.6443Z" fill="#012169"/>
    <path d="M8.86948 0.538391C7.33395 0.952297 5.92044 1.66306 4.69409 2.60563L8.86948 6.78102V0.538391Z" fill="#012169"/>
    <path d="M15.1304 23.7116C16.6659 23.2977 18.0794 22.5869 19.3058 21.6444L15.1304 17.469V23.7116Z" fill="#012169"/>
    <path d="M17.3439 15.2555L21.5193 19.4309C22.4619 18.2046 23.1727 16.791 23.5866 15.2555H17.3439Z" fill="#012169"/>
    <path d="M23.8984 10.5598H13.5653H13.5653V0.226578C13.0529 0.159875 12.5305 0.125 12 0.125C11.4694 0.125 10.9471 0.159875 10.4348 0.226578V10.5597V10.5597H0.101578C0.034875 11.0721 0 11.5945 0 12.125C0 12.6556 0.034875 13.1779 0.101578 13.6902H10.4347H10.4347V24.0234C10.9471 24.0901 11.4694 24.125 12 24.125C12.5305 24.125 13.0529 24.0902 13.5652 24.0234V13.6903V13.6903H23.8984C23.9651 13.1779 24 12.6556 24 12.125C24 11.5945 23.9651 11.0721 23.8984 10.5598Z" fill="#C8102E"/>
    <path d="M15.1304 15.2555L20.4852 20.6103C20.7315 20.3641 20.9665 20.1067 21.1906 19.8399L16.6062 15.2555H15.1304V15.2555Z" fill="#C8102E"/>
    <path d="M8.86957 15.2555H8.86947L3.51471 20.6103C3.7609 20.8565 4.01829 21.0915 4.2851 21.3156L8.86957 16.7311V15.2555Z" fill="#C8102E"/>
    <path d="M8.86957 8.99463V8.99454L3.51476 3.63968C3.26848 3.88587 3.03354 4.14326 2.80939 4.41007L7.3939 8.99459H8.86957V8.99463Z" fill="#C8102E"/>
    <path d="M15.1304 8.99465L20.4853 3.63975C20.2391 3.39346 19.9817 3.15853 19.7149 2.93442L15.1304 7.51893V8.99465Z" fill="#C8102E"/>
    <path fill-rule="evenodd" clip-rule="evenodd" d="M12 1.085C5.8139 1.085 0.96 5.9389 0.96 12.125C0.96 18.3111 5.8139 23.165 12 23.165C18.1861 23.165 23.04 18.3111 23.04 12.125C23.04 5.9389 18.1861 1.085 12 1.085ZM0 12.125C0 5.4087 5.2837 0.125 12 0.125C18.7163 0.125 24 5.4087 24 12.125C24 18.8413 18.7163 24.125 12 24.125C5.2837 24.125 0 18.8413 0 12.125Z" fill="#CFE0EE"/>
</svg>
