<svg width="50" height="50" viewBox="0 0 50 50" fill="none" xmlns="http://www.w3.org/2000/svg">
  <g fill="none" stroke="#0F7A4A" stroke-width="1.25" stroke-linecap="round" stroke-linejoin="round">
    <!-- Ramiona i dół -->
    <path d="M2 48 L8 34 Q25 28 42 34 L48 48"></path>
    <line x1="2" y1="48" x2="48" y2="48"></line>

    <!-- Szyja i dekolt V -->
    <path d="M20 36 L25 30 L30 36"></path>
    <line x1="25" y1="30" x2="25" y2="34"></line>

    <!-- Głowa -->
    <circle cx="25" cy="16" r="11"></circle>

    <!-- Włosy/zakola -->
    <path d="M14 10 C18 4 32 4 36 10"></path>
    <path d="M12 16 C12 9 18 6 25 6"></path>
    <path d="M38 16 C38 9 32 6 25 6"></path>

    <!-- Okulary -->
    <rect x="15.5" y="15" width="7" height="4.5" rx="1"></rect>
    <rect x="27.5" y="15" width="7" height="4.5" rx="1"></rect>
    <line x1="22.5" y1="17.25" x2="27.5" y2="17.25"></line>

    <!-- Wąsy -->
    <path d="M19 22.5c2 1.8 4 1.8 6 0"></path>
    <path d="M25 22.5c2 1.8 4 1.8 6 0"></path>
  </g>
</svg>
