<svg width="24" height="25" viewBox="0 0 24 25" fill="none" xmlns="http://www.w3.org/2000/svg">
    <path fill-rule="evenodd" clip-rule="evenodd"
          d="M-5.24537e-07 12.125C-2.34843e-07 18.7524 5.37258 24.125 12 24.125C18.6274 24.125 24 18.7524 24 12.125L-5.24537e-07 12.125Z"
          fill="#D51313"/>
    <path fill-rule="evenodd" clip-rule="evenodd"
          d="M24 12.125C24 5.49758 18.6274 0.125 12 0.124999C5.37258 0.124999 -2.34843e-07 5.49758 -5.24537e-07 12.125L24 12.125Z"
          fill="white"/>
    <path fill-rule="evenodd" clip-rule="evenodd"
          d="M12 1.085C5.8139 1.085 0.96 5.9389 0.96 12.125C0.96 18.3111 5.8139 23.165 12 23.165C18.1861 23.165 23.04 18.3111 23.04 12.125C23.04 5.9389 18.1861 1.085 12 1.085ZM0 12.125C0 5.4087 5.2837 0.125 12 0.125C18.7163 0.125 24 5.4087 24 12.125C24 18.8413 18.7163 24.125 12 24.125C5.2837 24.125 0 18.8413 0 12.125Z"
          fill="#CFE0EE"/>
</svg>
